<svg version="1" xmlns="http://www.w3.org/2000/svg" width="933.333" height="933.333" viewBox="0 0 700.000000 700.000000"><path d="M326.5 19.6c-3.3.8-8.9 2.4-12.5 3.6-6.6 2.2-23.1 9.6-24 10.8-.3.4-2.5 2-5 3.5-2.4 1.6-5 3.3-5.6 3.9-.6.6-3.4 3.1-6.3 5.6-2.9 2.4-8.4 8.3-12.2 13l-6.9 8.7-7.2-2.4c-21.4-7.1-46.9-6.9-69.4.5-32.8 10.8-56.2 33.4-70.4 67.7-2.4 5.8-4.1 13.1-5.8 24.9-1.7 11.3-1.9 12-4.3 12.6-9.5 2.6-28.9 15.3-39.1 25.7-9.4 9.6-18.1 22.2-22.2 32.4-1.5 3.5-3.1 7.3-3.6 8.4-1.4 3.3-3.8 12.5-5.4 21.3-2.9 15.1-1.7 31.8 3.5 50l2.1 7.3-4.4 5.2C12.9 340 4.9 357.2 1.4 379.2c-2.6 16.5-.8 39.2 4.3 53.8 4.6 13.1 26 52.3 31.1 57 1 .9 6.9 5 13.2 9.2 17.1 11.5 23.1 15.7 50.2 35.6 4 2.9 9.6 6.9 12.3 8.8 2.8 1.9 6 4.3 7.3 5.3l2.2 1.9-3.5 6.1c-5.9 10-7.7 17.1-7.3 28.1.4 8 .9 10.6 3.5 16.2 6 12.9 13.5 21.4 28.8 32.3 10.5 7.5 32.3 18.6 47 24.1 41.1 15.2 64.1 18.5 160.2 23 33.1 1.6 36.1 1.6 48 0 16.7-2.2 31.8-4.4 42.3-6.1 8.9-1.4 24.7-3.9 36.5-5.6 8.8-1.4 20.7-3.5 31-5.5 48.7-9.7 72.7-19.6 92.9-38.5 28.2-26.4 32.4-58.3 12-93l-4.6-7.9 5.1-5.2c2.8-2.9 8.1-8.7 11.8-12.8 10.6-11.8 41.6-41.9 48.5-47.2 1.8-1.3 6.1-8.6 13.3-22.3 14.1-26.9 16.3-61.4 5.8-90-3.2-8.5-7-16.2-11.5-23.1-5.2-7.8-5.6-9.5-3.4-14.6 6.1-14.5 8.1-36.5 5.1-55.1-5.2-32.6-21.7-58.2-49.5-77.3-4.3-3-12-6.9-22.1-11.2l-4.6-2-.7-10.8c-2.5-38-26.7-74.1-61.3-91.3-21.5-10.6-44.7-14.3-68.4-10.7-11.1 1.7-23.2 5.4-31 9.5l-5.7 2.9-5.4-6.2c-16-18.6-37-31-62-36.6-10.9-2.5-36.7-2.7-46.3-.4z"/></svg>